<svg width="93" height="93" viewBox="0 0 93 93" fill="none" xmlns="http://www.w3.org/2000/svg">
<path d="M89.981 38.4796C89.981 38.3384 89.981 38.1972 89.981 38.0559C88.4275 29.4408 84.3317 21.2493 77.6938 14.7526C71.0559 8.1147 62.8644 4.01896 54.2493 2.46541C54.108 2.46541 53.9668 2.46541 53.8256 2.46541C39.9848 0.0644588 25.1554 4.16019 14.563 14.7526C3.82937 25.4863 -0.266355 40.3156 2.27582 54.2976C2.27582 54.2976 2.27582 54.2976 2.27582 54.4389C3.82938 63.054 7.92511 71.2455 14.563 77.8834C23.3194 86.6398 34.618 90.8768 46.0578 90.8768C57.4976 90.8768 68.9374 86.4986 77.5526 77.8834C88.2862 67.1498 92.382 52.3204 89.981 38.4796ZM54.5317 5.29005C61.8758 6.84361 68.7962 10.2332 74.5867 15.7412L58.345 31.9829C51.8483 24.6389 50.436 14.1877 54.5317 5.29005ZM76.564 17.5773C82.072 23.3678 85.4616 30.2882 87.0151 37.6322C78.1175 41.8692 67.6663 40.3156 60.3223 33.819L76.564 17.5773ZM51.8483 4.86635C47.4701 14.6114 49.3062 25.91 56.6502 33.9602L46.199 44.4114L17.3877 15.7412C25.4379 8.25593 35.7479 4.44266 46.0578 4.44266C48.0351 4.44266 49.8711 4.58389 51.8483 4.86635ZM15.5517 17.5773L44.2218 46.2474L33.4881 56.981C25.5791 49.7782 14.4218 47.9422 4.818 52.0379C2.84075 40.0332 6.51279 27.181 15.5517 17.5773ZM37.4426 87.2048C30.2398 85.6512 23.3194 82.2616 17.5289 76.7536L33.4881 60.7943C39.8436 68.1384 41.3972 78.3071 37.4426 87.2048ZM5.10047 54.8626C13.8569 50.7668 24.0256 52.3204 31.3697 58.9583L15.5517 74.9175C10.0436 69.127 6.65402 62.2066 5.10047 54.8626ZM40.1261 87.6284C44.2218 77.8834 42.3858 66.7261 35.1829 58.9583L45.9166 48.2247L74.5867 76.8948C65.1242 85.7924 52.272 89.4645 40.1261 87.6284ZM76.564 74.9175L47.8938 46.2474L58.345 35.7962C63.4294 40.4569 69.926 42.8578 76.4227 42.8578C80.0948 42.8578 83.7668 42.1517 87.2976 40.5981C89.1336 52.6028 85.6028 65.3137 76.564 74.9175Z" fill="#231F20" stroke="black" stroke-width="3"/>
</svg>
