<svg version="1.0" xmlns="http://www.w3.org/2000/svg"
 width="348.000000pt" height="348.000000pt" viewBox="0 0 348.000000 348.000000"
 preserveAspectRatio="xMidYMid meet">

<g transform="translate(0.000000,348.000000) scale(0.100000,-0.100000)"
fill="currentColor" stroke="currentColor">
<path d="M820 2673 c-38 -15 -82 -60 -106 -109 -23 -46 -26 -64 -22 -123 3
-60 8 -75 36 -109 l32 -40 -21 -59 c-53 -151 -82 -371 -70 -533 5 -66 2 -96
-11 -135 -10 -27 -17 -79 -18 -114 0 -79 29 -136 88 -169 39 -22 44 -22 433
-22 329 1 401 3 434 16 86 33 111 36 181 24 123 -21 511 -24 665 -6 163 20
336 58 395 87 57 27 125 103 147 165 38 108 12 244 -63 322 -49 50 -94 75
-181 97 -35 9 -112 32 -171 51 -107 35 -108 35 -108 67 0 38 -7 50 -37 66 -33
17 -51 14 -79 -14 -21 -21 -28 -23 -44 -12 -12 7 -20 23 -20 38 0 53 -72 88
-111 53 -24 -22 -59 -3 -59 32 0 61 -50 95 -101 70 -33 -17 -45 -7 -41 35 2
19 -5 33 -25 49 -26 20 -46 22 -83 6 -9 -4 -40 14 -83 49 -74 60 -113 72 -174
56 -50 -14 -72 -38 -119 -130 -60 -119 -133 -157 -241 -126 -75 22 -151 97
-182 180 -12 33 -26 64 -31 70 -4 5 -11 30 -15 55 -6 33 -18 55 -45 82 -34 34
-43 38 -86 37 -27 0 -56 -3 -64 -6z m101 -39 c17 -8 37 -30 45 -49 18 -44 18
-45 -6 -45 -12 0 -25 10 -32 25 -23 51 -87 42 -132 -18 -20 -28 -26 -87 -14
-167 4 -35 -13 -38 -36 -6 -54 71 2 228 94 265 35 14 47 13 81 -5z m-24 -90
c4 -10 0 -20 -10 -26 -9 -5 -29 -29 -43 -54 -21 -35 -29 -42 -35 -31 -10 17 3
69 26 103 18 27 53 32 62 8z m95 -61 c9 -10 28 -46 43 -81 34 -75 121 -161
182 -180 50 -15 170 -16 227 -1 23 6 65 28 92 50 27 21 59 46 71 55 24 17 55
14 86 -8 16 -12 17 -17 6 -41 -11 -24 -10 -31 8 -55 18 -23 28 -27 71 -27 42
0 56 -5 81 -29 16 -15 27 -34 25 -40 -9 -23 15 -66 43 -77 19 -7 35 -7 54 1
23 10 33 9 58 -6 17 -10 31 -26 31 -35 0 -9 9 -28 21 -43 24 -30 63 -34 90
-10 26 24 79 10 79 -21 0 -64 84 -92 125 -41 15 18 30 26 53 26 32 0 105 31
116 49 5 7 97 -13 115 -26 2 -1 -12 -20 -31 -41 -73 -80 -161 -234 -189 -330
-8 -28 -20 -47 -33 -52 -49 -18 -606 -52 -606 -37 0 3 72 69 159 147 88 78
158 147 155 153 -7 19 -143 109 -159 105 -7 -2 -82 -64 -166 -138 -205 -181
-180 -168 -239 -130 -28 18 -50 35 -50 40 0 4 72 70 159 146 88 77 159 146
158 153 -1 8 -35 39 -76 68 -64 46 -77 51 -92 41 -9 -7 -87 -75 -173 -152
l-156 -138 -113 95 c-174 147 -407 393 -407 430 0 21 67 146 93 175 25 26 68
29 89 5z m729 -32 c24 -17 55 -41 67 -54 l23 -24 -33 -21 c-28 -18 -36 -19
-53 -8 -72 46 -124 39 -196 -29 -56 -52 -81 -59 -45 -12 13 17 35 58 49 89 41
91 107 112 188 59z m207 -98 c5 -31 -152 -137 -180 -122 -32 17 -16 41 62 96
79 55 113 63 118 26z m32 -84 c0 -14 -49 -89 -58 -89 -5 0 -19 11 -31 24 l-22
24 43 30 c40 28 68 32 68 11z m104 -1 c8 -13 -2 -35 -41 -100 -52 -84 -75
-100 -96 -67 -8 13 -1 33 33 89 63 104 79 117 104 78z m-1075 -231 c195 -200
386 -351 608 -483 62 -37 111 -69 109 -71 -5 -6 -296 17 -426 33 -140 17 -339
53 -476 84 l-92 21 -7 92 c-10 141 10 304 57 466 l22 74 39 -44 c22 -24 96
-102 166 -172z m1127 139 c19 -14 18 -15 -6 -64 l-25 -51 -32 17 -32 17 31 48
c34 52 36 53 64 33z m122 -8 c2 -10 -15 -56 -37 -103 -35 -75 -43 -86 -63 -83
-35 5 -32 26 11 122 35 76 44 87 63 84 13 -2 24 -11 26 -20z m181 -66 c7 -13
0 -38 -26 -97 -42 -97 -56 -114 -77 -95 -9 7 -16 18 -16 25 0 17 57 155 71
172 16 18 37 16 48 -5z m-111 -27 c2 -1 -5 -21 -14 -44 -14 -35 -20 -41 -38
-35 -36 11 -38 20 -17 63 20 38 24 40 44 30 12 -7 23 -13 25 -14z m-576 -81
c27 -20 46 -40 41 -44 -4 -4 -75 -67 -156 -139 l-149 -132 -46 34 c-26 18 -47
38 -47 44 0 10 291 273 302 273 3 0 28 -16 55 -36z m761 9 c26 -8 15 -26 -24
-40 -42 -14 -54 -4 -38 31 9 18 17 25 28 20 9 -3 24 -9 34 -11z m284 -88 c101
-30 180 -133 186 -242 2 -46 1 -48 -35 -60 -45 -15 -313 -69 -390 -78 -42 -5
-58 -4 -58 5 0 26 65 166 110 234 49 74 116 156 129 156 4 0 30 -7 58 -15z
m-755 -97 c26 -18 48 -36 48 -40 0 -3 -68 -67 -152 -142 l-151 -135 -59 32
c-46 25 -55 34 -45 44 28 28 302 272 306 272 3 1 26 -14 53 -31z m-1187 -263
c158 -36 387 -72 560 -90 145 -14 153 -16 245 -62 l95 -47 -65 -16 c-36 -9
-76 -22 -90 -30 -21 -13 -92 -15 -417 -15 -380 0 -392 1 -419 21 -50 37 -67
68 -67 126 1 65 19 138 36 138 7 0 62 -11 122 -25z m2088 -43 c-43 -70 -103
-106 -230 -136 -119 -28 -337 -59 -385 -54 l-30 3 58 57 c96 94 115 103 244
122 63 9 171 29 240 44 69 15 127 24 129 19 1 -4 -10 -29 -26 -55z m-635 -122
l-81 -80 -56 0 c-32 0 -116 5 -188 11 l-131 10 -82 54 c-46 30 -84 56 -85 57
-2 2 103 4 233 5 131 1 275 6 322 11 165 18 159 23 68 -68z"/>
</g>
</svg>
