<svg version="1.0" xmlns="http://www.w3.org/2000/svg"
 className='w-6 h-6' viewBox="0 0 290.000000 290.000000"
 preserveAspectRatio="xMidYMid meet">

<g transform="translate(0.000000,290.000000) scale(0.100000,-0.100000)"
fill="currentColor" stroke="currentColor">
<path d="M1199 2297 c-22 -15 -38 -36 -45 -62 -14 -45 -18 -135 -6 -135 4 0
18 10 32 23 112 101 175 108 278 29 26 -19 40 -27 32 -16 -91 120 -169 184
-225 184 -18 0 -47 -10 -66 -23z"/>
<path d="M1273 2168 c-23 -13 -69 -44 -102 -70 -99 -75 -149 -90 -336 -98 -88
-4 -168 -10 -178 -15 -25 -11 -37 -38 -37 -82 1 -37 4 -40 100 -107 55 -39
100 -71 100 -72 0 -1 -52 -45 -115 -99 -64 -53 -122 -107 -130 -118 -11 -16
-15 -49 -15 -120 0 -96 1 -99 21 -94 12 3 94 -1 183 -8 88 -8 196 -18 239 -21
l77 -7 0 89 c0 67 5 100 20 132 22 49 13 50 127 -19 144 -88 203 -113 273
-112 111 0 162 42 162 131 0 57 -19 98 -68 147 -43 44 -64 45 -64 5 0 -43 -20
-80 -48 -87 -29 -7 -138 23 -225 62 l-58 25 22 31 c12 18 63 74 112 126 l90
94 17 -38 c21 -47 65 -73 122 -73 23 0 54 -6 68 -13 14 -7 72 -61 129 -120 57
-59 121 -115 142 -124 21 -10 39 -21 39 -25 0 -11 -150 -140 -225 -192 -38
-27 -74 -54 -80 -59 -6 -6 57 -7 175 -3 315 11 492 35 661 93 l107 36 -10 28
c-13 39 -63 79 -97 79 -19 0 -34 -9 -49 -29 -32 -44 -135 -90 -204 -93 -75 -3
-88 10 -97 96 -4 36 -12 71 -18 77 -6 6 -30 15 -54 20 -83 19 -200 132 -414
399 -145 180 -228 250 -298 250 -12 0 -41 -10 -64 -22z"/>
<path d="M1323 1754 c-48 -52 -89 -102 -91 -109 -4 -17 146 -76 210 -83 47 -4
48 -4 63 31 8 20 15 50 15 67 0 38 8 38 62 -3 95 -72 127 -210 63 -277 -34
-35 -79 -50 -152 -50 -63 0 -117 23 -261 108 -57 34 -105 62 -107 62 -1 0 -8
-14 -15 -30 -11 -26 -18 -206 -8 -214 4 -5 372 -26 439 -26 53 0 62 4 144 63
83 58 216 171 223 188 2 4 -12 15 -30 25 -18 9 -83 68 -143 130 l-111 114 -49
0 c-61 0 -113 25 -141 68 l-22 32 -89 -96z"/>
<path d="M620 1806 c0 -19 -11 -81 -25 -138 -14 -57 -25 -111 -25 -121 0 -13
22 1 78 51 43 38 93 79 110 92 18 13 32 27 32 30 0 7 -155 120 -164 120 -3 0
-6 -15 -6 -34z"/>
<path d="M2130 1504 c6 -14 10 -44 10 -68 0 -66 16 -80 83 -73 30 3 75 14 99
25 41 19 113 80 104 89 -6 6 -256 52 -283 53 -20 0 -21 -3 -13 -26z"/>
<path d="M2465 1309 c-190 -67 -487 -95 -930 -86 -165 4 -385 15 -510 27 -121
11 -275 23 -342 27 l-123 6 0 -77 c0 -106 15 -139 76 -162 46 -18 86 -19 659
-19 409 1 653 5 740 13 321 31 500 83 573 167 55 62 36 136 -34 134 -16 -1
-65 -14 -109 -30z"/>
</g>
</svg>
