<?xml version="1.0" standalone="no"?>
<!DOCTYPE svg PUBLIC "-//W3C//DTD SVG 20010904//EN"
 "http://www.w3.org/TR/2001/REC-SVG-20010904/DTD/svg10.dtd">
<svg version="1.0" xmlns="http://www.w3.org/2000/svg"
 width="222.000000pt" height="222.000000pt" viewBox="0 0 222.000000 222.000000"
 preserveAspectRatio="xMidYMid meet">

<g transform="translate(0.000000,222.000000) scale(0.100000,-0.100000)"
fill="#000000" stroke="none">
<path d="M504 1559 c-48 -24 -77 -134 -45 -173 20 -23 36 -5 21 24 -14 26 -5
71 21 105 24 30 54 32 71 5 15 -23 38 -27 38 -5 0 23 -37 55 -62 54 -13 0 -32
-5 -44 -10z"/>
<path d="M530 1410 c-16 -33 -30 -64 -30 -69 0 -20 141 -170 240 -256 l101
-88 22 20 c12 10 61 54 108 96 48 42 92 77 99 77 15 0 100 -61 100 -71 0 -5
-47 -50 -105 -100 -58 -51 -105 -95 -105 -99 0 -8 55 -40 69 -40 6 0 58 43
116 95 58 52 112 95 119 95 19 0 96 -58 96 -73 0 -6 -31 -38 -68 -69 -37 -32
-83 -73 -102 -93 l-34 -35 45 0 c57 0 318 19 345 25 15 3 29 25 49 76 15 39
50 101 76 136 27 35 49 66 49 68 0 1 -14 8 -31 14 -27 9 -37 8 -64 -9 -18 -11
-44 -20 -58 -20 -13 0 -27 -7 -31 -15 -3 -9 -18 -15 -36 -15 -25 0 -33 5 -41
29 -10 29 -44 47 -55 30 -8 -13 -48 -11 -62 3 -7 7 -12 20 -12 30 0 19 -40 34
-66 24 -23 -9 -54 12 -54 36 0 12 -9 32 -21 44 -16 17 -28 21 -54 17 -27 -4
-35 -1 -45 16 -6 12 -8 30 -5 41 4 13 0 22 -14 29 -29 16 -35 14 -81 -24 -97
-81 -232 -71 -309 21 -17 22 -34 50 -38 64 -9 37 -22 50 -54 50 -25 0 -33 -8
-59 -60z"/>
<path d="M1007 1449 c-10 -6 -27 -32 -38 -57 -11 -26 -25 -50 -32 -54 -6 -4
-9 -10 -6 -13 4 -3 25 10 49 30 46 38 82 44 117 20 19 -13 23 -13 43 3 l21 17
-42 33 c-44 33 -80 40 -112 21z"/>
<path d="M1161 1364 c-49 -33 -62 -56 -41 -69 12 -8 120 64 120 80 0 26 -29
22 -79 -11z"/>
<path d="M1207 1312 c-27 -19 -27 -19 -7 -37 11 -10 21 -16 23 -14 13 17 37
59 37 64 0 11 -26 4 -53 -13z"/>
<path d="M1260 1275 c-30 -53 -32 -75 -7 -75 14 0 77 98 77 118 0 7 -9 12 -19
12 -13 0 -30 -18 -51 -55z"/>
<path d="M466 1257 c-28 -98 -37 -172 -34 -267 l3 -95 75 -17 c114 -27 311
-57 450 -67 69 -5 126 -8 127 -7 2 1 -40 29 -93 62 -138 85 -242 170 -386 315
l-128 129 -14 -53z"/>
<path d="M1316 1239 c-15 -26 -16 -33 -5 -40 24 -15 34 -10 47 23 9 25 9 34
-1 40 -19 12 -21 10 -41 -23z"/>
<path d="M1382 1213 c-30 -60 -31 -83 -6 -83 15 0 64 97 64 125 0 34 -32 11
-58 -42z"/>
<path d="M1504 1164 c-25 -57 -25 -89 -1 -82 14 5 45 67 54 109 4 23 2 29 -11
29 -11 0 -26 -20 -42 -56z"/>
<path d="M1441 1184 c-12 -27 -7 -44 13 -44 19 0 37 45 23 59 -16 16 -23 14
-36 -15z"/>
<path d="M961 1071 l-100 -90 33 -20 c18 -12 37 -21 40 -21 4 0 52 39 106 88
l99 87 -27 22 c-15 12 -33 22 -39 23 -7 0 -57 -40 -112 -89z"/>
<path d="M1567 1144 c-4 -4 -7 -11 -7 -16 0 -13 50 -6 53 7 2 12 -36 19 -46 9z"/>
<path d="M1706 1044 c-45 -58 -89 -139 -101 -187 -8 -31 -24 -32 180 9 66 13
123 24 127 24 15 0 8 65 -11 105 -10 22 -27 48 -37 57 -20 18 -85 48 -104 48
-5 0 -30 -25 -54 -56z"/>
<path d="M1158 954 c-54 -47 -98 -89 -98 -93 0 -4 16 -16 35 -27 34 -18 35
-18 57 2 13 11 58 51 101 89 42 38 77 71 77 75 0 7 -55 40 -67 40 -4 0 -52
-39 -105 -86z"/>
<path d="M426 862 c-2 -4 -7 -24 -11 -44 -11 -56 2 -97 38 -119 29 -17 53 -19
280 -19 198 0 255 3 284 15 19 8 50 15 67 15 l31 0 -25 20 c-37 28 -126 60
-170 60 -56 0 -291 36 -393 60 -101 23 -94 22 -101 12z"/>
<path d="M1845 854 c-27 -8 -99 -22 -160 -31 -109 -18 -109 -18 -164 -69 -30
-28 -50 -53 -45 -56 12 -7 181 16 272 37 77 18 122 47 147 96 24 45 26 44 -50
23z"/>
<path d="M1435 790 c-38 -4 -139 -8 -224 -9 l-153 -1 59 -40 c59 -39 61 -39
182 -46 l122 -7 49 54 c51 55 55 60 43 57 -5 0 -39 -4 -78 -8z"/>
</g>
</svg>
